<svg width="18" height="18" viewBox="0 0 18 18" fill="none" xmlns="http://www.w3.org/2000/svg">
<path d="M9 1H4C2.34315 1 1 2.34315 1 4V14C1 15.6569 2.34315 17 4 17H9" stroke="#AC7A66" stroke-linecap="round" stroke-linejoin="round"/>
<path d="M7 8.5C6.72386 8.5 6.5 8.72386 6.5 9C6.5 9.27614 6.72386 9.5 7 9.5L7 8.5ZM17.3536 9.35355C17.5488 9.15829 17.5488 8.84171 17.3536 8.64645L14.1716 5.46447C13.9763 5.2692 13.6597 5.2692 13.4645 5.46447C13.2692 5.65973 13.2692 5.97631 13.4645 6.17157L16.2929 9L13.4645 11.8284C13.2692 12.0237 13.2692 12.3403 13.4645 12.5355C13.6597 12.7308 13.9763 12.7308 14.1716 12.5355L17.3536 9.35355ZM7 9.5L17 9.5L17 8.5L7 8.5L7 9.5Z" fill="#AC7A66"/>
</svg>
