<svg width="38" height="38" viewBox="0 0 38 38" fill="none" xmlns="http://www.w3.org/2000/svg">
<path d="M5.95115 10.8649C8.66496 10.8649 10.8649 8.66496 10.8649 5.95115C10.8649 3.23733 8.66496 1.03735 5.95115 1.03735C3.23733 1.03735 1.03735 3.23733 1.03735 5.95115C1.03735 8.66496 3.23733 10.8649 5.95115 10.8649Z" stroke="#707070" stroke-width="0.982759" stroke-miterlimit="22.9256"/>
<path d="M17.3621 5.95114H36.9626" stroke="#707070" stroke-width="0.982759" stroke-miterlimit="22.9256" stroke-linecap="round"/>
<path d="M5.95115 23.9138C8.66496 23.9138 10.8649 21.7138 10.8649 19C10.8649 16.2862 8.66496 14.0862 5.95115 14.0862C3.23733 14.0862 1.03735 16.2862 1.03735 19C1.03735 21.7138 3.23733 23.9138 5.95115 23.9138Z" stroke="#707070" stroke-width="0.982759" stroke-miterlimit="22.9256"/>
<path d="M17.3621 19H36.9626" stroke="#707070" stroke-width="0.982759" stroke-miterlimit="22.9256" stroke-linecap="round"/>
<path d="M5.95115 36.9626C8.66496 36.9626 10.8649 34.7627 10.8649 32.0488C10.8649 29.335 8.66496 27.1351 5.95115 27.1351C3.23733 27.1351 1.03735 29.335 1.03735 32.0488C1.03735 34.7627 3.23733 36.9626 5.95115 36.9626Z" stroke="#707070" stroke-width="0.982759" stroke-miterlimit="22.9256"/>
<path d="M17.3621 32.0488H36.9626" stroke="#707070" stroke-width="0.982759" stroke-miterlimit="22.9256" stroke-linecap="round"/>
</svg>
