<svg width="38" height="38" viewBox="0 0 38 38" fill="none" xmlns="http://www.w3.org/2000/svg">
<path d="M5.95139 10.8649C8.6652 10.8649 10.8652 8.66496 10.8652 5.95115C10.8652 3.23733 8.6652 1.03735 5.95139 1.03735C3.23758 1.03735 1.0376 3.23733 1.0376 5.95115C1.0376 8.66496 3.23758 10.8649 5.95139 10.8649Z" fill="#AC7A66" stroke="#AC7A66" stroke-width="0.982759" stroke-miterlimit="22.9256"/>
<path d="M17.3623 5.95114H36.9629" stroke="#AC7A66" stroke-width="0.982759" stroke-miterlimit="22.9256" stroke-linecap="round"/>
<path d="M5.95139 23.9138C8.6652 23.9138 10.8652 21.7138 10.8652 19C10.8652 16.2862 8.6652 14.0862 5.95139 14.0862C3.23758 14.0862 1.0376 16.2862 1.0376 19C1.0376 21.7138 3.23758 23.9138 5.95139 23.9138Z" fill="#AC7A66" stroke="#AC7A66" stroke-width="0.982759" stroke-miterlimit="22.9256"/>
<path d="M17.3623 19H36.9629" stroke="#AC7A66" stroke-width="0.982759" stroke-miterlimit="22.9256" stroke-linecap="round"/>
<path d="M5.95139 36.9626C8.6652 36.9626 10.8652 34.7627 10.8652 32.0488C10.8652 29.335 8.6652 27.1351 5.95139 27.1351C3.23758 27.1351 1.0376 29.335 1.0376 32.0488C1.0376 34.7627 3.23758 36.9626 5.95139 36.9626Z" fill="#AC7A66" stroke="#AC7A66" stroke-width="0.982759" stroke-miterlimit="22.9256"/>
<path d="M17.3623 32.0488H36.9629" stroke="#AC7A66" stroke-width="0.982759" stroke-miterlimit="22.9256" stroke-linecap="round"/>
</svg>
