<svg width="92" height="46" viewBox="0 0 92 46" fill="none" xmlns="http://www.w3.org/2000/svg">
<path d="M35.3367 43.7107C37.3315 43.7107 38.3355 42.6397 38.3355 40.5111C38.3355 39.5605 38.041 38.8242 37.452 38.3155C36.8629 37.7934 36.1132 37.539 35.2162 37.539H31.2267V43.7107H35.3367ZM4.34427 43.7107H9.69934L15.4293 27.5786H20.2622L26.9159 45.9598V27.5786H35.6178C39.2995 27.5786 41.147 29.0512 41.147 31.9697C41.147 33.7101 40.6382 34.8749 39.6341 35.4371C38.6301 35.9994 37.7866 36.2806 37.1173 36.2806C40.2634 36.5751 41.8297 38.0477 41.8297 40.6985C41.8029 42.7602 41.2273 44.1525 40.1161 44.8888C39.0049 45.6385 37.5457 46 35.7383 46H26.9293H26.9159H22.6184L20.9584 41.6089H13.3943L11.8414 46H10.4089H8.88269H0.0334473V27.5786H4.34427V43.7107ZM20.0614 38.9313L17.1697 31.0728L14.4118 38.9313H20.0614ZM68.5783 37.8201L73.9467 45.9331L80.4665 27.5786H85.2995L91.9665 46H87.6691L85.9956 41.6089H78.4316L76.8786 46H73.9869H73.9199H68.9933L63.1697 36.0396H65.4991C65.5527 36.0396 65.6999 36.053 65.9409 36.0664C66.1819 36.0797 66.3827 36.0797 66.5567 36.0797C68.8192 36.0797 69.984 35.1292 70.0375 33.2014C70.0375 32.1839 69.7698 31.3807 69.2343 30.7782C68.6988 30.1758 67.9892 29.8813 67.119 29.8813H63.25V46H58.9525V27.5786H67.6545C71.885 27.5786 73.9869 29.3591 73.9869 32.9203C73.9333 34.3795 73.5049 35.4639 72.7017 36.1868C71.8984 36.8964 71.0148 37.3784 70.0375 37.5926C69.3012 37.7666 68.846 37.8469 68.6586 37.8469C68.605 37.8469 68.5783 37.8469 68.5783 37.8201ZM85.0986 38.9313L82.2203 31.0728L79.4491 38.9313H85.0986ZM51.335 43.7107C53.3431 43.7107 54.3338 42.6397 54.3338 40.5111C54.3338 39.5605 54.0393 38.8242 53.4502 38.3155C52.8612 37.7934 52.1114 37.539 51.2145 37.539H47.2249V43.7107H51.335ZM53.9322 32.1706C53.7983 30.6444 52.8612 29.8813 51.1341 29.8813H47.2249V35.2497H51.0003C52.9549 35.2497 53.9322 34.2189 53.9322 32.1706ZM51.6161 27.5786C55.3111 27.5786 57.1452 29.0512 57.1452 31.9697C57.1452 33.7101 56.6499 34.8749 55.6324 35.4371C54.6283 35.9994 53.7849 36.2806 53.1155 36.2806C56.2616 36.5751 57.828 38.0477 57.828 40.6985C57.8012 42.7602 57.2255 44.1525 56.1144 44.8888C55.0166 45.6385 53.5573 46 51.7366 46H42.9141V27.5786H51.6161ZM37.9339 32.1706C37.7867 30.6444 36.8629 29.8813 35.1359 29.8813H31.2267V35.2497H35.002C36.9566 35.2497 37.9339 34.2189 37.9339 32.1706Z" fill="#3D3D3D"/>
<path d="M28.8571 8.58149C28.8437 8.5681 28.8303 8.54133 28.8169 8.50116C28.7634 8.40745 28.6831 8.28696 28.576 8.11292C28.3484 7.76484 27.9601 7.22934 27.3443 6.5064C26.5009 5.5291 25.6842 4.77939 25.1621 4.3376C24.8676 4.59197 24.1179 5.22119 23.4485 5.93073C22.5783 6.84109 21.4939 8.30035 21.4939 8.30035L22.8193 9.21071C22.8193 9.21071 23.4217 9.89348 25.5236 11.0047C27.1837 11.9016 28.4421 11.5937 28.8973 11.4331V8.60827H28.8705C28.8705 8.60827 28.8705 8.60826 28.8571 8.58149ZM25.0684 3.77532C25.4968 4.1234 26.541 5.00698 27.6254 6.26542C28.2547 7.00175 28.6563 7.56403 28.8973 7.92549V0.334691C28.576 0.548894 28.1342 0.85681 27.5719 1.2986C26.608 2.04831 25.3897 3.41385 25.0684 3.77532ZM35.243 11.6473C35.069 11.1519 34.7611 10.3353 34.2657 9.02328C33.7838 7.71129 32.7395 5.44878 31.8292 3.50757C31.2267 2.20896 30.6778 1.07101 30.3833 0.45518C29.7675 0.187427 29.3926 0.0267753 29.3926 0.0267753C29.3926 0.0267753 29.3391 0.0133877 29.2721 0V17.9127C31.5882 16.8149 33.8507 14.3382 35.4305 12.1962C35.3903 12.1024 35.3367 11.9284 35.243 11.6473ZM61.3757 14.3783C61.3757 14.3783 61.2954 13.5751 60.5457 11.8213C59.796 10.0675 58.2832 8.32712 58.2832 8.32712C58.2832 8.32712 56.0742 7.41676 51.9776 7.08207C47.881 6.73399 42.0841 6.73399 42.0841 6.73399C42.0841 6.73399 39.9823 5.23458 36.8495 3.53434C34.8682 2.44994 32.4316 1.35215 30.892 0.682771C31.789 2.51688 33.8373 6.84109 34.6272 8.90279C35.6179 11.5402 35.8187 12.1828 35.8187 12.1962L35.8455 12.2899L35.7919 12.3702C35.7785 12.3702 35.2832 12.9994 34.6406 13.7893C34.3059 14.2043 33.931 14.6729 33.583 15.1147C33.7838 15.436 34.172 16.0518 34.7611 16.8818C35.6313 18.1403 37.2244 21.0722 37.2244 21.0722C37.2244 21.0722 36.7558 21.2864 36.0864 21.6746C35.4974 22.0093 34.8012 22.8126 34.654 22.9866H38.4561L39.9019 18.1537C39.9019 18.1537 41.4817 18.408 44.7884 17.7386C48.0952 17.0693 50.1301 15.0879 50.1301 15.0879L56.2349 19.3318L56.1545 22.0896L54.4275 22.9866H57.4532L59.796 19.9744L57.9485 15.8242C57.9485 15.8242 58.2029 14.7532 58.3233 13.8027C58.4572 12.8388 58.4171 11.6339 58.4171 11.6339L59.4479 14.1508C59.4479 14.1508 59.622 14.539 61.041 16.2392C62.4601 17.9395 64.0131 18.1938 64.0131 18.1938L64.388 17.4173L61.3757 14.3783Z" fill="#3D3D3D"/>
</svg>
