<svg width="99" height="78" viewBox="0 0 99 78" fill="none" xmlns="http://www.w3.org/2000/svg">
<path fill-rule="evenodd" clip-rule="evenodd" d="M42.4433 18.4568H55.905L56.2229 24.9247V24.9728V24.9889V25.0049H55.46L55.4441 24.9247L55.4282 24.7963L55.4123 24.6679L55.3964 24.5556L55.3646 24.4272L55.3488 24.3148L55.3329 24.1864L55.3011 24.0741L55.2852 23.9617L55.2534 23.8494L55.2375 23.737L55.2057 23.6247V23.5926L55.1898 23.5605V23.5123L55.158 23.416L55.1421 23.3037L55.1104 23.1914L55.0786 23.0951L55.0627 22.9988L55.0309 22.9025L54.9991 22.8062L54.9673 22.7099L54.9514 22.6136L54.9196 22.5173L54.8878 22.421L54.8719 22.4049V22.3728L54.8561 22.3407L54.8243 22.2444L54.7925 22.1642L54.7607 22.084L54.7289 21.9877L54.6971 21.9074L54.6653 21.8272L54.6335 21.7469L54.6018 21.6827L54.57 21.6025L54.5382 21.5222L54.5064 21.458H54.4905V21.442L54.4746 21.4099L54.4587 21.3778L54.4269 21.3136L54.3951 21.2494L54.3475 21.1852L54.3157 21.121L54.2839 21.0568L54.2362 20.9926L54.2044 20.9284L54.1567 20.8802V20.8642L54.125 20.8161L54.0932 20.7679L54.0455 20.7198L54.0137 20.6877V20.6716L53.9978 20.6556L53.966 20.6074L53.9183 20.5593L53.8707 20.5111L53.8389 20.463L53.7912 20.4148L53.7435 20.3827L53.7117 20.3346L53.6641 20.3025V20.2864L53.6164 20.2543L53.5687 20.2062L53.521 20.1741L53.4733 20.142V20.1259L53.4256 20.0938L53.378 20.0617L53.3303 20.0136L53.2826 19.9815L53.2349 19.9494L53.2031 19.9333L53.1873 19.9173L53.1237 19.8852L53.076 19.8531L53.0283 19.837L52.9806 19.8049L52.9171 19.7728L52.8694 19.7407L52.8217 19.7247L52.7581 19.6926L52.7105 19.6765L52.6787 19.6605H52.6469L52.5992 19.6284L52.5356 19.6123L52.4879 19.5963L52.4244 19.5802L52.3767 19.5642L52.3131 19.5481L52.2495 19.5321L52.186 19.516L52.1383 19.5H52.1224H52.0747L52.0111 19.484L51.9476 19.4679H51.884L51.8204 19.4519H51.7568H51.6933L51.6297 19.4358H51.5661H51.5026H48.0378H48.0219H48.006H47.9901H47.9742L47.9583 19.4519H47.9424H47.9265H47.9107H47.8948H47.8789L47.863 19.4679H47.8471H47.8312H47.8153V19.484H47.7994H47.7835H47.7676L47.7517 19.5H47.7358L47.7199 19.516H47.704H47.6881V19.5321H47.6723L47.6564 19.5481H47.6405L47.6246 19.5642H47.6087V19.5802H47.5928L47.5769 19.5963L47.561 19.6123L47.5451 19.6284L47.5292 19.6444L47.5133 19.6605L47.4974 19.6765V19.6926H47.4815V19.7086L47.4656 19.7247L47.4497 19.7407V19.7568H47.4339V19.7728L47.418 19.7889V19.8049H47.4021V19.821V19.837L47.3862 19.8531V19.8691L47.3703 19.8852V19.9012L47.3544 19.9173V19.9333V19.9494L47.3385 19.9654V19.9815V19.9975V20.0136L47.3226 20.0296V20.0457V20.0617V20.0778L47.3067 20.0938V20.1099V20.1259V20.142V20.158V20.1741L47.2908 20.2062V20.2222V20.2383V20.2543V20.2704V20.2864V20.3185V20.3346V20.3506V20.3667V20.3988V27.3642H48.8007H48.8325H48.8484H48.896H48.9437L48.9914 27.3481H49.0391H49.0868L49.1344 27.3321H49.1821L49.2139 27.316H49.2616L49.2934 27.3H49.3093H49.357L49.3887 27.284L49.4364 27.2679L49.4841 27.2519L49.5159 27.2358H49.5477L49.5636 27.2198H49.6112L49.643 27.2037L49.6907 27.1716L49.7225 27.1556L49.7702 27.1395L49.802 27.1235L49.8496 27.1074L49.8814 27.0753L49.9132 27.0593L49.9609 27.0432L49.9927 27.0111L50.0245 26.9951L50.0721 26.963L50.1039 26.9309L50.1357 26.9148L50.1675 26.8827H50.1834L50.2152 26.8506L50.2311 26.8346H50.247V26.8185L50.2788 26.8025L50.3106 26.7704L50.3423 26.7383L50.3741 26.7062L50.4059 26.658L50.4536 26.6259L50.4854 26.5938L50.5172 26.5617L50.549 26.5296L50.5807 26.4815L50.5966 26.4494L50.6284 26.4173V26.4012L50.6602 26.3691L50.692 26.337L50.7238 26.2889L50.7556 26.2407L50.7715 26.2086L50.8032 26.1605L50.835 26.1123L50.8509 26.0642L50.8827 26.0161L50.8986 25.9679L50.9304 25.9198L50.9463 25.8877V25.8716H50.9622L50.9781 25.8235L50.994 25.7753L51.0258 25.7111L51.0416 25.663L51.0575 25.6148L51.0893 25.5506L51.1052 25.5025L51.1211 25.4383L51.137 25.3901L51.1529 25.3259L51.1688 25.2617L51.1847 25.2136L51.2006 25.1975V25.1494L51.2165 25.0852L51.2324 25.021L51.2483 24.9568L51.2642 24.8926L51.28 24.8284L51.2959 24.7642V24.7L51.3118 24.6358L51.3277 24.5556V24.4914L51.3436 24.4272V24.3951L51.3595 24.3469V24.2827L51.3754 24.2025V24.1383L51.3913 24.058V23.9778V23.8975L51.4072 23.8333V23.7531V23.6728V23.5926L51.4231 23.5123V23.4642H52.2178V32.4519H51.4231V32.4358L51.4072 32.3556V32.2593V32.179V32.0827L51.3913 32.0025V31.9062V31.8259L51.3754 31.7457V31.6654L51.3595 31.5852V31.5049L51.3436 31.4247V31.3444L51.3277 31.2642L51.3118 31.184V31.1037L51.2959 31.0395L51.28 30.9593L51.2642 30.8951L51.2483 30.8148L51.2324 30.7506L51.2165 30.6864L51.2006 30.6222L51.1847 30.542L51.1688 30.4778L51.1529 30.4136L51.137 30.3494L51.1211 30.2852L51.1052 30.237L51.0893 30.1728L51.0575 30.1086L51.0416 30.0605L51.0258 29.9963L50.994 29.9482L50.9781 29.884L50.9463 29.8358V29.8198L50.9304 29.7877L50.8986 29.7235L50.8827 29.6753L50.8509 29.6272L50.835 29.579L50.8032 29.5309L50.7715 29.4827L50.7556 29.4506L50.7238 29.4025L50.692 29.3543L50.6602 29.3222L50.6284 29.2741V29.258H50.6125L50.5966 29.242L50.5648 29.1938L50.5331 29.1617L50.5013 29.1136L50.4695 29.0815L50.4377 29.0494L50.4059 29.0173L50.3741 28.9852L50.3423 28.9531L50.3106 28.921L50.2629 28.8889L50.2311 28.8568L50.2152 28.8407L50.1993 28.8247L50.1675 28.7926L50.1198 28.7605L50.088 28.7444L50.0563 28.7123L50.0086 28.6802L49.9768 28.6642L49.9609 28.6481L49.9291 28.6321L49.8973 28.6161L49.8496 28.584L49.8179 28.5679L49.7702 28.5519L49.7543 28.5358H49.7384L49.6907 28.5037L49.643 28.4877L49.6112 28.4716L49.5795 28.4556H49.5636L49.5159 28.4395L49.4682 28.4235L49.4205 28.4074H49.3887L49.3411 28.3914L49.2934 28.3753L49.2457 28.3593H49.2139H49.198L49.1503 28.3432H49.1027L49.055 28.3272H49.0073L48.9596 28.3111H48.9119H48.8643L48.8007 28.2951H48.753H48.7053H48.6576H47.2908V36.0469V36.063V36.079V36.0951V36.1111V36.1272V36.1432V36.1593V36.1753V36.1914L47.3067 36.2074V36.2235V36.2395V36.2556V36.2716L47.3226 36.2877V36.3037V36.3198V36.3358L47.3385 36.3519V36.3679V36.3839L47.3544 36.4V36.416L47.3703 36.4321V36.4481L47.3862 36.4642V36.4802L47.4021 36.4963V36.5123H47.418V36.5284L47.4339 36.5444V36.5605H47.4497V36.5765L47.4656 36.5926L47.4815 36.6086V36.6247H47.4974L47.5133 36.6407L47.5292 36.6568H47.5451V36.6728L47.561 36.6889H47.5769V36.7049H47.5928L47.6087 36.721H47.6246V36.737H47.6405H47.6564L47.6723 36.7531H47.6881L47.704 36.7691L47.7199 36.7852H47.7358H47.7517L47.7676 36.8012H47.7835H47.7994L47.8153 36.8173H47.8312H47.8471H47.863V36.8333H47.8789H47.9107H47.9265L47.9424 36.8494H47.9583H47.9742H47.9901H48.0219L48.0378 36.8654H48.0537H48.0696H48.0855H48.1173H48.1332H48.1491L48.1808 36.8815H48.1967H48.2126H48.2444H48.2603H48.2921H50.9781H51.0734H51.137L51.3118 36.8654L51.4867 36.8494L51.6456 36.8333L51.8045 36.8173L51.9635 36.7852H51.9794H51.9952L52.1224 36.7531L52.2337 36.721L52.2813 36.7049L52.4244 36.6728L52.5833 36.6086L52.7263 36.5605L52.8694 36.4963H52.8853L52.9965 36.4321L53.1396 36.3679L53.2349 36.3037L53.2667 36.2877L53.3939 36.2074L53.521 36.1111L53.6482 36.0309L53.6641 36.0148V35.9988H53.6799L53.7753 35.9185L53.8866 35.8222L53.9978 35.7099L54.0773 35.6296L54.1091 35.5975L54.2203 35.4852L54.3157 35.3568L54.3475 35.3247V35.3086L54.4269 35.2284L54.5223 35.084L54.6177 34.9556L54.6971 34.7951L54.7766 34.6667L54.7925 34.6506L54.8719 34.4901L54.9037 34.458V34.442L54.9673 34.3296L55.0468 34.1691L55.1104 33.9926L55.1898 33.8161L55.2693 33.6235L55.317 33.463L55.3329 33.4469V33.4148L55.3488 33.3667L55.3646 33.3506L55.3964 33.2543L55.46 33.0457L55.5077 32.837L55.5713 32.6284L55.6189 32.4198L55.6666 32.1951L55.6825 32.0988V32.0827L55.7143 31.9704L55.762 31.7457L55.7938 31.5049L55.8255 31.2642L55.8573 31.0074L55.8891 30.7667L55.905 30.6864V30.6383H56.7315L56.4454 37.8605H42.4433V36.8815H43.6671H43.6989H43.7307H43.7466H43.7784H43.8102L43.8261 36.8654H43.8578H43.8737H43.9055H43.9214H43.9532L43.9691 36.8494H44.0009H44.0168H44.0327H44.0645L44.0804 36.8333H44.0962H44.128L44.1439 36.8173H44.1598H44.1916L44.2075 36.8012H44.2234H44.2393L44.2552 36.7852H44.2711L44.3029 36.7691H44.3188L44.3346 36.7531H44.3505H44.3664V36.737H44.3823H44.3982L44.4141 36.721L44.43 36.7049H44.4459L44.4618 36.6889L44.4777 36.6728L44.4936 36.6568H44.5095L44.5254 36.6407L44.5413 36.6247L44.5572 36.6086L44.573 36.5926L44.5889 36.5765L44.6048 36.5605L44.6207 36.5444L44.6366 36.5284V36.5123L44.6525 36.4963L44.6684 36.4802L44.6843 36.4642V36.4481L44.7002 36.4321V36.416H44.7161V36.4L44.732 36.3839V36.3679V36.3519L44.7479 36.3358V36.3198L44.7638 36.3037V36.2877V36.2716L44.7797 36.2556V36.2395V36.2235L44.7956 36.2074V36.1914V36.1753L44.8114 36.1593V36.1272V36.1111V36.0951V36.079L44.8273 36.063V36.0469V36.0309V35.9988V35.9827V35.9667V35.9506V35.9185L44.8432 35.9025V35.8864V35.8704V20.4148V20.3988V20.3667L44.8273 20.3506V20.3346V20.3185V20.2864V20.2704V20.2543V20.2383V20.2222V20.1901L44.8114 20.1741V20.158V20.142V20.1259V20.1099L44.7956 20.0938V20.0778V20.0617V20.0457L44.7797 20.0296V20.0136V19.9975L44.7638 19.9815V19.9654V19.9494L44.7479 19.9333V19.9173L44.732 19.9012V19.8852V19.8691H44.7161V19.8531L44.7002 19.837V19.821L44.6843 19.8049L44.6684 19.7889V19.7728L44.6525 19.7568L44.6366 19.7407V19.7247H44.6207L44.6048 19.7086V19.6926H44.5889V19.6765L44.573 19.6605H44.5572V19.6444H44.5413L44.5254 19.6284L44.5095 19.6123L44.4936 19.5963H44.4777L44.4618 19.5802L44.4459 19.5642H44.43L44.4141 19.5481H44.3982H44.3823L44.3664 19.5321L44.3505 19.516H44.3346H44.3188L44.3029 19.5H44.287H44.2711L44.2552 19.484H44.2393H44.2234H44.2075L44.1916 19.4679H44.1757H44.1439H44.128L44.1121 19.4519H44.0962H44.0804H44.0645H44.0327H44.0168H44.0009L43.985 19.4358H43.9691H43.9373H43.9214H43.9055H42.4433V18.4568ZM50.5172 0L50.2311 7.88025H48.7689L48.4828 0H50.5172ZM53.3621 9.83827L52.027 9.59753L51.8045 11.1704L53.0283 11.379L53.3621 9.83827ZM55.317 0.609877L53.3144 0.240741L52.2337 8.05679L53.6799 8.31358L55.317 0.609877ZM46.9729 46.3667L45.6538 46.1259L45.9717 44.5691L47.1954 44.7778L46.9729 46.3667ZM45.7015 55.7074L43.683 55.3543L45.32 47.6346L46.7663 47.8914L45.7015 55.7074ZM56.4136 10.7852L55.1421 10.3198L54.6653 11.8284L55.8255 12.2617L56.4136 10.7852ZM59.9419 2.03827L58.0188 1.3321L55.6189 8.84321L57.0017 9.34074L59.9419 2.03827ZM43.8578 45.6444L42.5864 45.163L43.1744 43.7025L44.3346 44.1198L43.8578 45.6444ZM40.9811 54.6161L39.0739 53.9099L42.0142 46.6074L43.381 47.121L40.9811 54.6161ZM59.2744 12.2617L58.0983 11.5716L57.3672 12.984L58.4321 13.6099L59.2744 12.2617ZM64.2331 4.26914L62.469 3.22593L58.8135 10.2074L60.085 10.9457L64.2331 4.26914ZM40.9017 44.3765L39.7415 43.7025L40.5679 42.3543L41.6487 42.9802L40.9017 44.3765ZM36.531 52.7222L34.7668 51.6951L38.915 45.0185L40.1865 45.7568L36.531 52.7222ZM61.8332 14.2037L60.7843 13.337L59.8307 14.5889L60.7684 15.3914L61.8332 14.2037ZM68.0952 7.20617L66.5377 5.89012L61.7379 12.1012L62.8504 13.0642L68.0952 7.20617ZM38.2157 42.6272L37.1826 41.7444L38.2316 40.5728L39.1852 41.3753L38.2157 42.6272ZM32.4782 50.0741L30.9206 48.742L36.1496 42.9L37.278 43.8469L32.4782 50.0741ZM64.0106 16.579L63.1365 15.5358L61.9763 16.5951L62.771 17.558L64.0106 16.579ZM71.3852 10.7852L70.066 9.1963L64.2808 14.4926L65.2185 15.6321L71.3852 10.7852ZM35.8635 40.4284L35.0052 39.3691L36.2449 38.3901L37.0396 39.3531L35.8635 40.4284ZM28.934 46.7519L27.6307 45.179L33.7815 40.3321L34.7351 41.4556L28.934 46.7519ZM65.743 19.2914L65.0755 18.1198L63.7404 18.9543L64.3603 20.0457L65.743 19.2914ZM74.0076 14.8778L72.9904 13.0963L66.3787 17.2852L67.1098 18.5691L74.0076 14.8778ZM33.9404 37.8444L33.257 36.6568L34.6556 35.9185L35.2754 36.9938L33.9404 37.8444ZM26.0255 42.8519L24.9924 41.0704L31.906 37.379L32.6371 38.663L26.0255 42.8519ZM66.9986 22.2765L66.5218 20.9926L65.0755 21.5864L65.4887 22.758L66.9986 22.2765ZM75.883 19.3716L75.1837 17.4457L67.9522 20.4148L68.4608 21.7951L75.883 19.3716ZM32.4782 34.9556L32.0173 33.6716L33.5113 33.1901L33.9404 34.3617L32.4782 34.9556ZM23.8163 38.5185L23.117 36.5765L30.5551 34.1531L31.0478 35.5494L23.8163 38.5185ZM67.7138 25.4222L67.4754 24.0901L65.9337 24.4111L66.1403 25.6469L67.7138 25.4222ZM76.9637 24.1383L76.6141 22.1L68.9694 23.7531L69.2237 25.2136L76.9637 24.1383ZM31.5405 31.8741L31.3021 30.5259L32.8596 30.3012L33.0662 31.537L31.5405 31.8741ZM22.4018 33.8481L22.0363 31.8259L29.7763 30.7346L30.0306 32.1951L22.4018 33.8481ZM67.8727 28.6642V27.3L66.2993 27.3481V28.6L67.8727 28.6642ZM77.2021 29.0012V26.9469L69.3985 27.2358V28.7123L77.2021 29.0012ZM31.1432 28.6642V27.3L32.7166 27.3481V28.6L31.1432 28.6642ZM21.7979 29.0012V26.9469L29.6015 27.2358V28.7123L21.7979 29.0012ZM67.4754 31.8741L67.6979 30.5259L66.1403 30.3012L65.9337 31.537L67.4754 31.8741ZM76.6141 33.8481L76.9637 31.8259L69.2237 30.7346L68.9694 32.1951L76.6141 33.8481ZM31.3021 25.4222L31.5405 24.0901L33.0662 24.4111L32.8596 25.6469L31.3021 25.4222ZM22.0363 24.1383L22.4018 22.1L30.0306 23.7531L29.7763 25.2136L22.0363 24.1383ZM66.5218 34.9556L66.9986 33.6716L65.4887 33.1901L65.0755 34.3617L66.5218 34.9556ZM75.1837 38.5185L75.883 36.5765L68.4608 34.1531L67.9522 35.5494L75.1837 38.5185ZM32.0173 22.2765L32.4782 20.9926L33.9404 21.5864L33.5113 22.758L32.0173 22.2765ZM23.117 19.3716L23.8163 17.4457L31.0478 20.4148L30.5551 21.7951L23.117 19.3716ZM65.0755 37.8444L65.743 36.6568L64.3603 35.9185L63.7404 36.9938L65.0755 37.8444ZM72.9904 42.8519L74.0076 41.0704L67.1098 37.379L66.3787 38.663L72.9904 42.8519ZM33.257 19.2914L33.9404 18.1198L35.2754 18.9543L34.6556 20.0457L33.257 19.2914ZM24.9924 14.8778L26.0255 13.0963L32.6371 17.2852L31.906 18.5691L24.9924 14.8778ZM63.1365 40.4284L64.0106 39.3691L62.771 38.3901L61.9763 39.3531L63.1365 40.4284ZM70.066 46.7519L71.3852 45.179L65.2185 40.3321L64.2808 41.4556L70.066 46.7519ZM35.0052 16.579L35.8635 15.5358L37.0396 16.5951L36.2449 17.558L35.0052 16.579ZM27.6307 10.7852L28.934 9.1963L34.7351 14.4926L33.7815 15.6321L27.6307 10.7852ZM60.7843 42.6272L61.8174 41.7444L60.7684 40.5728L59.8307 41.3753L60.7843 42.6272ZM66.5377 50.0741L68.0952 48.742L62.8504 42.9L61.7379 43.8469L66.5377 50.0741ZM37.1826 14.2037L38.2157 13.337L39.1852 14.5889L38.2316 15.3914L37.1826 14.2037ZM30.9206 7.20617L32.4782 5.89012L37.278 12.1012L36.1496 13.0642L30.9206 7.20617ZM58.0983 44.3765L59.2744 43.7025L58.4321 42.3543L57.3672 42.9802L58.0983 44.3765ZM62.469 52.7222L64.2331 51.6951L60.085 45.0185L58.8135 45.7568L62.469 52.7222ZM39.7415 12.2617L40.9017 11.5716L41.6487 12.984L40.5679 13.6099L39.7415 12.2617ZM34.7668 4.26914L36.531 3.22593L40.1865 10.2074L38.915 10.9457L34.7668 4.26914ZM55.1421 45.6444L56.4136 45.163L55.8255 43.7025L54.6653 44.1198L55.1421 45.6444ZM58.0188 54.6161L59.9419 53.9099L57.0017 46.6074L55.6189 47.121L58.0188 54.6161ZM42.5864 10.7852L43.8578 10.3198L44.3346 11.8284L43.1744 12.2617L42.5864 10.7852ZM39.0739 2.03827L40.9811 1.3321L43.381 8.84321L42.0142 9.34074L39.0739 2.03827ZM52.027 46.3667L53.3621 46.1259L53.0283 44.5691L51.8045 44.7778L52.027 46.3667ZM53.3144 55.7074L55.317 55.3543L53.6799 47.6346L52.2337 47.8914L53.3144 55.7074ZM45.6538 9.83827L46.9729 9.59753L47.1954 11.1704L45.9717 11.379L45.6538 9.83827ZM43.683 0.609877L45.7015 0.240741L46.7663 8.05679L45.32 8.31358L43.683 0.609877ZM48.8325 46.5272H50.1834L50.1198 44.9383H48.8801L48.8325 46.5272ZM48.4828 55.9482H50.5172L50.2311 48.0679H48.7689L48.4828 55.9482ZM48.8325 9.43704H50.1834L50.1198 11.0259H48.8801L48.8325 9.43704Z" fill="#3D3D3D"/>
<path fill-rule="evenodd" clip-rule="evenodd" d="M0.230469 65.5296H9.16254L9.38505 69.6383H8.87646C8.66985 68.3543 8.35198 67.4395 7.90696 66.9259C7.46195 66.4123 6.88979 66.1555 6.19048 66.1555H3.9813C3.80648 66.1555 3.66344 66.2037 3.58397 66.316C3.48861 66.4123 3.44093 66.5728 3.44093 66.7815V71.1309H4.41042C4.91901 71.1309 5.34813 70.9222 5.666 70.521C5.98387 70.1197 6.15869 69.5099 6.19048 68.6753H6.71496V74.3247H6.19048C6.15869 73.3778 5.98387 72.7197 5.65011 72.3185C5.33224 71.9173 4.88722 71.7086 4.31506 71.7086H3.44093V76.5395C3.44093 76.716 3.48861 76.8605 3.59986 76.9568C3.71112 77.037 3.90184 77.0852 4.14024 77.0852H5.88851C7.77982 77.0852 8.87646 75.7852 9.16254 73.1691H9.71881L9.52809 77.7111H0.230469V77.0852H0.99335C1.29532 77.0852 1.51783 77.037 1.62908 76.9247C1.75623 76.8123 1.81981 76.6518 1.81981 76.4271V66.7815C1.81981 66.5728 1.75623 66.4123 1.66087 66.316C1.54962 66.2037 1.37479 66.1555 1.15228 66.1555H0.230469V65.5296H0.230469ZM92.6504 67.6321L90.616 73.0568H94.6053L92.6504 67.6321ZM98.7693 77.7111V77.0852H98.4197C97.927 77.0852 97.5932 76.8605 97.4184 76.4111L93.3815 65.2728H92.8729L89.0426 75.6086C88.8201 76.1864 88.5976 76.5716 88.3433 76.7802C88.0731 76.9889 87.7393 77.0852 87.2943 77.0852V77.7111H91.3789V77.0852H90.9975C90.5684 77.0852 90.2187 76.9889 89.9962 76.8123C89.7578 76.6197 89.6465 76.379 89.6465 76.1062C89.6465 75.8815 89.7101 75.5605 89.8532 75.1753L90.3776 73.6987H94.8437L95.7655 76.2827C95.8132 76.379 95.8291 76.4753 95.8291 76.5716C95.8291 76.7321 95.7655 76.8444 95.6225 76.9247C95.4317 77.037 95.098 77.0852 94.6371 77.0852H94.2715V77.7111H98.7693ZM79.0139 65.5296H86.6904V66.1555L80.2536 77.0852H82.7011C83.4005 77.0852 83.9726 76.9728 84.4176 76.716C84.8626 76.4753 85.2282 76.1062 85.5143 75.6086C85.7845 75.1271 86.0387 74.2926 86.2613 73.137H86.8016L86.595 77.7111H78.4417V77.1494L84.9421 66.1555H82.6217C81.9859 66.1555 81.4932 66.2358 81.1436 66.3963C80.6668 66.6049 80.2695 66.9901 79.9675 67.5358C79.6655 68.0975 79.4589 68.8358 79.3318 69.7506H78.8073L79.0139 65.5296ZM69.4779 65.5296H77.1544V66.1555L70.7175 77.0852H73.1651C73.8644 77.0852 74.4366 76.9728 74.8816 76.716C75.3266 76.4753 75.6922 76.1062 75.9782 75.6086C76.2484 75.1271 76.5027 74.2926 76.7252 73.137H77.2656L77.059 77.7111H68.9057V77.1494L75.4061 66.1555H73.0857C72.4499 66.1555 71.9572 66.2358 71.6076 66.3963C71.1149 66.6049 70.7334 66.9901 70.4315 67.5358C70.1295 68.0975 69.9229 68.8358 69.7957 69.7506H69.2712L69.4779 65.5296ZM56.2546 65.5296H58.9406L65.7429 75.095V68.1778C65.7429 67.4876 65.5999 66.958 65.2979 66.637C65.0277 66.3321 64.6304 66.1716 64.09 66.1555V65.5296H68.0475V66.1555C67.6342 66.1555 67.3323 66.2197 67.1415 66.3321C66.9349 66.4605 66.7601 66.6691 66.6171 66.9901C66.474 67.3111 66.3946 67.6642 66.3946 68.0333V77.7111H65.6794L58.6386 67.7444V75.095C58.6386 75.7691 58.7975 76.2506 59.1154 76.5876C59.4174 76.9086 59.8942 77.0852 60.5458 77.0852V77.7111H56.2546V77.0852C56.7791 77.0691 57.2082 76.8765 57.5261 76.5234C57.8439 76.1543 58.0029 75.721 58.0029 75.2074V66.958L57.8598 66.7975C57.6214 66.4926 57.4307 66.3321 57.3194 66.2679C57.1764 66.1876 56.9857 66.1555 56.7632 66.1555H56.2546V65.5296ZM49.5635 67.6321L47.545 73.0568H51.5184L49.5635 67.6321ZM49.786 65.2728H50.2946L54.3474 76.4111C54.5063 76.8605 54.8401 77.0852 55.3328 77.0852H55.6983V77.7111H51.1846V77.0852H51.5501C52.0111 77.0852 52.3448 77.037 52.5355 76.9247C52.6786 76.8444 52.7421 76.7321 52.7421 76.5716C52.7421 76.4753 52.7263 76.379 52.6786 76.2827L51.7568 73.6987H47.2907L46.7662 75.1753C46.6391 75.5605 46.5596 75.8815 46.5596 76.1062C46.5596 76.379 46.6709 76.6197 46.9093 76.8123C47.1477 76.9889 47.4814 77.0852 47.9265 77.0852H48.3079V77.7111H44.2074V77.0852C44.6524 77.0852 45.0021 76.9889 45.2564 76.7802C45.5107 76.5716 45.7332 76.1864 45.9557 75.6086L49.786 65.2728ZM40.9652 66.4926L41.585 65.2728H42.0936L42.3797 70.1358H41.887C41.5055 68.7395 41.0446 67.7284 40.536 67.1025C39.8685 66.316 39.1215 65.9148 38.2633 65.9148C37.6117 65.9148 37.0236 66.1074 36.4991 66.5086C35.9905 66.9099 35.5932 67.5197 35.3071 68.3222C35.0369 69.1086 34.8939 70.2481 34.8939 71.6926C34.8939 73.1049 35.0369 74.2123 35.3071 74.9987C35.5932 75.8012 35.9746 76.379 36.4515 76.7642C36.9441 77.1333 37.5163 77.3259 38.1679 77.3259C39.058 77.3259 39.7414 77.0531 40.2341 76.5234C40.7109 75.9778 40.9652 75.2876 40.9652 74.437V73.2975C40.9652 73.1049 40.9016 72.9605 40.7586 72.8642C40.6314 72.7679 40.4248 72.7197 40.1228 72.7197H39.1692V72.142H43.9054V72.7197H43.2697C42.9836 72.7197 42.777 72.7679 42.6499 72.8802C42.5227 72.9926 42.475 73.137 42.475 73.3457V78H41.9664C41.7757 77.2778 41.585 76.5716 41.3943 75.9136C41.0128 76.5876 40.5519 77.1012 40.0275 77.4383C39.503 77.7753 38.9149 77.9358 38.2474 77.9358C37.2938 77.9358 36.4197 77.679 35.6091 77.1494C34.7826 76.6197 34.1469 75.8815 33.686 74.9185C33.2092 73.9716 32.9708 72.8802 32.9708 71.6765C32.9708 70.4568 33.2092 69.3815 33.686 68.4185C34.1628 67.4555 34.7985 66.6852 35.625 66.1234C36.4515 65.5617 37.2779 65.2728 38.1203 65.2728C38.5971 65.2728 39.0421 65.3691 39.4871 65.5457C39.9162 65.7222 40.4089 66.0272 40.9652 66.4926ZM21.9249 65.5296H30.857L31.0795 69.6383H30.5709C30.3643 68.3543 30.0464 67.4395 29.6014 66.9259C29.1564 66.4123 28.5842 66.1555 27.8849 66.1555H25.6757C25.5009 66.1555 25.3579 66.2037 25.2784 66.316C25.1831 66.4123 25.1354 66.5728 25.1354 66.7815V71.1309H26.1049C26.6135 71.1309 27.0426 70.9222 27.3604 70.521C27.6783 70.1197 27.8531 69.5099 27.8849 68.6753H28.4094V74.3247H27.8849C27.8531 73.3778 27.6783 72.7197 27.3604 72.3185C27.0267 71.9173 26.5817 71.7086 26.0095 71.7086H25.1354V76.5395C25.1354 76.716 25.1831 76.8605 25.2943 76.9568C25.4056 77.037 25.5963 77.0852 25.8506 77.0852H27.583C29.4743 77.0852 30.5709 75.7852 30.857 73.1691H31.4133L31.2225 77.7111H21.9249V77.0852H22.6878C22.9898 77.0852 23.2123 77.037 23.3235 76.9247C23.4507 76.8123 23.5142 76.6518 23.5142 76.4271V66.7815C23.5142 66.5728 23.4666 66.4123 23.3553 66.316C23.2441 66.2037 23.0692 66.1555 22.8467 66.1555H21.9249V65.5296ZM10.9744 65.5296H16.2033V66.1555H14.9477C14.757 66.1555 14.614 66.2037 14.5186 66.316C14.4232 66.4284 14.3756 66.6049 14.3756 66.8617V76.4592C14.3756 76.6839 14.4391 76.8444 14.5504 76.9407C14.6775 77.037 14.9159 77.0852 15.2815 77.0852H16.8549C17.6973 77.0852 18.3966 76.7963 18.9211 76.1864C19.4614 75.5765 19.8588 74.5173 20.0972 73.0247H20.6217L20.3674 77.7111H10.9744V77.0852H11.8962C12.2141 77.0852 12.4366 77.021 12.5637 76.8926C12.6909 76.7642 12.7544 76.5555 12.7544 76.2827V66.7654C12.7544 66.5728 12.6909 66.4123 12.5955 66.316C12.4843 66.2037 12.3253 66.1555 12.1187 66.1555H10.9744V65.5296Z" fill="#3D3D3D"/>
</svg>
