<svg width="38" height="38" viewBox="0 0 38 38" fill="none" xmlns="http://www.w3.org/2000/svg">
<path d="M19.0001 16.2701C23.2216 16.2701 26.6438 12.8479 26.6438 8.62644C26.6438 4.40495 23.2216 0.982758 19.0001 0.982758C14.7786 0.982758 11.3564 4.40495 11.3564 8.62644C11.3564 12.8479 14.7786 16.2701 19.0001 16.2701Z" fill="#AC7A66" stroke="#AC7A66" stroke-width="0.982759" stroke-miterlimit="22.9256"/>
<path fill-rule="evenodd" clip-rule="evenodd" d="M3.71289 36.9626H34.233C34.233 34.9971 33.8508 32.977 33.0865 31.1207C32.3221 29.2644 31.1755 27.6264 29.756 26.2069C28.3365 24.7874 26.6985 23.6408 24.8422 22.8764C22.9859 22.1121 20.9658 21.7299 19.0002 21.7299C16.9801 21.7299 15.0146 22.1121 13.1583 22.8764C11.302 23.6408 9.60944 24.7874 8.1899 26.2069C6.77036 27.6264 5.67841 29.2644 4.91404 31.1207C4.09507 32.977 3.71289 34.9971 3.71289 36.9626Z" fill="#AC7A66" stroke="#AC7A66" stroke-width="0.982759" stroke-miterlimit="22.9256" stroke-linecap="round"/>
</svg>
