<svg width="38" height="38" viewBox="0 0 38 38" fill="none" xmlns="http://www.w3.org/2000/svg">
<path d="M19 16.2701C23.2215 16.2701 26.6437 12.8479 26.6437 8.62644C26.6437 4.40495 23.2215 0.982758 19 0.982758C14.7785 0.982758 11.3563 4.40495 11.3563 8.62644C11.3563 12.8479 14.7785 16.2701 19 16.2701Z" stroke="#707070" stroke-width="0.982759" stroke-miterlimit="22.9256"/>
<path d="M34.2328 36.9626C34.2328 34.9971 33.8506 32.977 33.0862 31.1207C32.3218 29.2644 31.1753 27.6264 29.7558 26.2069C28.3362 24.7874 26.6983 23.6408 24.842 22.8764C22.9856 22.1121 20.9655 21.7299 19 21.7299C16.9799 21.7299 15.0144 22.1121 13.158 22.8764C11.3017 23.6408 9.6092 24.7874 8.18966 26.2069C6.77012 27.6264 5.67816 29.2644 4.9138 31.1207C4.09483 32.977 3.71265 34.9971 3.71265 36.9626" stroke="#707070" stroke-width="0.982759" stroke-miterlimit="22.9256" stroke-linecap="round"/>
</svg>
