<svg width="38" height="38" viewBox="0 0 38 38" fill="none" xmlns="http://www.w3.org/2000/svg">
<path fill-rule="evenodd" clip-rule="evenodd" d="M10.1552 36.9626H4.64083C3.71267 36.9626 2.72991 36.5805 2.07474 35.9253C1.36497 35.2701 0.982788 34.342 0.982788 33.3592V20.8017C0.982788 19.819 1.36497 18.8908 2.07474 18.2356C2.72991 17.5805 3.71267 17.1983 4.64083 17.1983H10.1552V36.9626ZM22.9311 13.5948V6.38793C22.9311 4.96839 22.3305 3.60345 21.3477 2.56609C20.3104 1.58333 18.8908 0.982758 17.4713 0.982758L10.1552 17.1983V36.9626H30.7385C31.6121 36.9626 32.4857 36.6897 33.1408 36.1437C33.8506 35.5431 34.2874 34.7787 34.3966 33.9052L36.9081 17.7443C37.0173 17.1983 36.9627 16.7069 36.8535 16.1609C36.6897 15.6695 36.4167 15.2328 36.0891 14.8506C35.7069 14.4138 35.3247 14.1408 34.8334 13.9224C34.342 13.704 33.796 13.5948 33.3046 13.5948H22.9311V13.5948Z" stroke="#DDDDDD" stroke-width="0.982759" stroke-miterlimit="22.9256" stroke-linecap="round" stroke-linejoin="round"/>
</svg>
