<svg width="38" height="38" viewBox="0 0 38 38" fill="none" xmlns="http://www.w3.org/2000/svg">
<path fill-rule="evenodd" clip-rule="evenodd" d="M20.2558 2.4569L24.3506 13.3218L35.9253 13.8132C36.5259 13.8678 36.9627 14.1954 37.1811 14.796C37.3449 15.342 37.1811 15.8879 36.6897 16.2701L27.6265 23.477L30.7386 34.6695C30.9024 35.2155 30.684 35.8161 30.2472 36.1437C29.7558 36.4713 29.1552 36.5259 28.6638 36.1983L19.0001 29.8103L9.33626 36.1983C8.84488 36.5259 8.2443 36.4713 7.75293 36.1437C7.26155 35.8161 7.09775 35.2155 7.26155 34.6695L10.319 23.477L1.2558 16.2701C0.819017 15.8879 0.655224 15.342 0.819017 14.796C0.98281 14.1954 1.47419 13.8678 2.07476 13.8132L13.6495 13.3218L17.6897 2.4569C17.9081 1.91092 18.3995 1.58333 19.0001 1.58333C19.546 1.58333 20.092 1.91092 20.2558 2.4569V2.4569Z" stroke="#DDDDDD" stroke-width="0.982759" stroke-miterlimit="22.9256" stroke-linecap="round" stroke-linejoin="round"/>
</svg>
